<svg width="200" height="100" viewBox="0 0 150 75" fill="none" xmlns="http://www.w3.org/2000/svg">
<g clip-path="url(#clip0_4316_833)">
<path d="M51.3038 10.5288C51.0343 11.1224 49.5262 20.0316 49.3601 20.6524C49.0661 21.747 48.6387 18.3107 48.6387 18.1773C48.6387 15.1032 48.6414 12.0318 48.6441 8.95772C48.6686 8.93594 48.6958 8.91143 48.7203 8.88965C49.4173 9.33075 50.1169 9.77186 50.8138 10.2157C50.9771 10.3192 51.1405 10.4253 51.3038 10.5288Z" fill="#F0F0F0"/>
<path d="M118.478 24.9681C118.628 24.8619 119.292 23.6284 119.39 23.4868C120.348 22.1063 120.825 21.7224 121.418 20.1622C121.696 19.4298 122.126 18.7545 122.515 18.0684C122.602 17.9131 122.812 17.2597 122.967 17.1426C123.101 18.1119 123.147 19.3971 122.85 20.6278C122.804 21.1452 122.63 21.6544 122.48 22.1581C122.265 22.8824 122.014 23.5958 121.791 24.3173C121.603 24.93 121.443 25.5508 121.26 26.1661C120.825 27.6365 119.733 28.9026 118.475 29.8284C118.473 28.2083 118.478 26.5882 118.475 24.9654L118.478 24.9681Z" fill="#E11166"/>
<path d="M105.444 28.38C105.371 29.0443 105.422 29.4664 105.354 30.1308C105.352 30.1607 105.499 30.1716 105.196 30.4167C104.388 31.032 103.443 31.7427 102.607 32.3771C103.849 30.1308 104.84 26.0819 105.196 25.4556C105.42 25.0662 105.43 28.2738 105.444 28.38Z" fill="#F0F0F0"/>
<path d="M48.6386 26.2208C47.9008 26.6483 45.7121 27.7483 45.3772 27.9117C44.7321 28.2275 41.0242 29.736 40.7656 29.755C41.2883 29.3194 42.9081 28.2493 43.1858 28.1322C43.6758 27.9253 46.556 25.9567 47.193 25.0173C48.2302 23.4897 48.4997 19.9555 48.6631 18.251C49.3654 13.2926 49.0796 25.6435 48.6359 26.2208H48.6386Z" fill="#F0F0F0"/>
<path d="M117.728 44.3439C117.728 44.0743 117.728 43.9164 117.728 43.7585C117.718 40.9839 117.698 38.2093 117.698 35.4374C117.698 34.4735 118.24 33.9753 119.468 33.8936C119.996 33.8582 120.538 33.9834 121.071 34.0569C121.668 34.1386 121.926 34.5688 122.019 35.1025C122.087 35.4892 122.114 35.8894 122.114 36.2842C122.12 40.7661 122.12 45.2479 122.117 49.7297C122.117 49.8958 122.114 50.0592 122.109 50.2253C122.071 51.4206 121.689 51.9298 120.532 52.1122C120.01 52.1966 119.457 52.0986 118.918 52.0578C118.036 51.9924 117.699 51.2463 117.255 50.6637C115.341 48.1477 113.446 45.6182 111.549 43.0914C111.241 42.683 110.942 42.2718 110.563 41.7626C110.563 42.0131 110.563 42.152 110.563 42.2909C110.552 44.9375 110.542 47.5841 110.536 50.228C110.533 51.6303 109.918 52.0469 108.522 52.1286C108.17 52.1503 107.8 52.1149 107.457 52.0333C106.534 51.8127 106.227 51.4261 106.167 50.4948C106.15 50.2471 106.153 49.9993 106.153 49.7515C106.153 45.237 106.153 40.7198 106.153 36.2053C106.153 35.8214 106.118 35.4211 106.21 35.0562C106.42 34.2312 106.858 33.9072 107.767 33.8854C108.306 33.8718 108.851 33.9126 109.385 33.9916C110.15 34.1032 110.522 34.7404 110.931 35.2849C113.06 38.1412 115.172 41.0111 117.296 43.8756C117.399 44.0144 117.53 44.1288 117.728 44.3439Z" fill="#E11266"/>
<path d="M130.568 42.9337C130.568 40.3878 130.563 37.8392 130.571 35.2934C130.571 34.5364 130.9 34.0763 131.638 33.9619C132.4 33.8448 133.182 33.8285 133.955 33.8203C135.128 33.8067 136.304 33.8312 137.478 33.8557C140.404 33.9183 142.707 35.1872 144.588 37.3981C147.109 40.3633 147.052 45.4333 144.556 48.4965C143.009 50.3944 141.074 51.6469 138.643 52.0145C137.753 52.1506 136.827 52.0607 135.918 52.0635C134.777 52.0662 133.636 52.058 132.493 52.0553C132.46 52.0553 132.428 52.0553 132.395 52.0553C131.162 51.9791 130.577 51.7912 130.566 50.2283C130.549 47.7967 130.56 45.368 130.56 42.9364C130.56 42.9364 130.563 42.9364 130.566 42.9364L130.568 42.9337ZM135 47.7069C136.065 47.6606 137.072 47.666 138.068 47.5599C140.126 47.342 141.681 45.7219 141.986 43.6444C142.359 41.104 140.84 39.315 139.084 38.5771C137.772 38.0244 136.386 38.3049 134.998 38.2422V47.7042L135 47.7069Z" fill="#E11266"/>
<path d="M41.5988 38.2448V40.739C41.7921 40.7472 41.9663 40.7608 42.1433 40.7635C43.665 40.7689 45.1868 40.7689 46.7113 40.7771C46.9427 40.7771 47.1741 40.7934 47.4028 40.8261C48.1732 40.935 48.6142 41.4306 48.6305 42.2039C48.6414 42.6994 48.6414 43.195 48.6333 43.6933C48.6197 44.5782 47.9581 45.18 47.008 45.18C45.2222 45.18 43.4364 45.18 41.6151 45.18V47.6796C41.7839 47.6796 41.9581 47.6796 42.1324 47.6796C44.3511 47.6796 46.567 47.6741 48.7857 47.685C49.2785 47.685 49.7739 47.715 50.2612 47.783C50.7975 47.8565 51.2358 48.1724 51.2848 48.7142C51.3583 49.493 51.3638 50.2908 51.2739 51.0668C51.2059 51.6685 50.724 51.9817 50.1142 52.0389C49.7358 52.0742 49.3547 52.1069 48.9763 52.1096C45.8647 52.1151 42.753 52.1151 39.6442 52.1096C39.2984 52.1096 38.95 52.0824 38.607 52.0389C37.695 51.919 37.2621 51.448 37.2022 50.5386C37.1859 50.2744 37.1777 50.0103 37.1777 49.7462C37.1777 45.2453 37.1777 40.7472 37.1777 36.2463C37.1777 36.0475 37.1832 35.8487 37.1941 35.65C37.273 34.2586 37.8311 33.9672 38.969 33.8774C39.7258 33.8175 40.4908 33.8583 41.2503 33.8583C43.9155 33.8583 46.5779 33.8583 49.2431 33.8583C49.4745 33.8583 49.7059 33.8583 49.9373 33.8747C50.7676 33.9373 51.2304 34.2695 51.3365 35.0782C51.4236 35.7398 51.4128 36.4341 51.3039 37.0931C51.1732 37.8882 50.6859 38.2285 49.8692 38.2312C47.3048 38.2448 44.7403 38.2448 42.1732 38.2476C41.9935 38.2476 41.8166 38.2476 41.5988 38.2476V38.2448Z" fill="#E11166"/>
<path d="M89.1323 48.2242C88.106 48.2242 87.0824 48.2324 86.0561 48.2188C85.7703 48.2161 85.6314 48.3087 85.5062 48.5837C85.0734 49.5367 84.6079 50.4788 84.126 51.41C83.6795 52.2731 82.8982 52.589 82.0298 52.1887C81.4037 51.9001 80.753 51.557 80.2794 51.0751C79.7349 50.5196 80.0044 49.8117 80.3148 49.1718C81.5806 46.5687 82.8438 43.963 84.0988 41.3545C85.0979 39.2769 86.0643 37.1831 87.0906 35.1191C87.5153 34.2641 88.2476 33.823 89.2494 33.8612C90.1614 33.8966 90.7603 34.3567 91.1414 35.1382C92.3964 37.7195 93.6432 40.3062 94.8955 42.8902C95.8619 44.8833 96.8175 46.8792 97.8029 48.8614C98.6006 50.4652 98.4427 51.086 96.8583 51.9083C96.42 52.1343 95.9028 52.2432 95.41 52.3221C94.8356 52.4147 94.4654 52.0853 94.2204 51.5788C93.744 50.5931 93.2349 49.6211 92.783 48.6245C92.6333 48.2923 92.4481 48.2079 92.1133 48.2161C91.1224 48.2351 90.1287 48.2242 89.1351 48.2242H89.1323ZM89.1378 41.1176C88.5688 42.302 88.0516 43.3803 87.518 44.4939H90.7875C90.2376 43.3694 89.7149 42.2993 89.1378 41.1176Z" fill="#E11367"/>
<path d="M22.7616 52.4039C19.307 52.3821 14.8805 49.8281 13.7589 45.6076C12.4903 40.8263 14.513 35.9551 19.8868 34.1798C22.9249 33.175 25.7289 33.7142 28.3342 35.4895C29.1155 36.0204 29.3224 36.791 28.846 37.6079C28.5275 38.1552 28.0919 38.6453 27.6509 39.1054C27.2425 39.5302 26.7144 39.5602 26.1863 39.2933C25.9522 39.1735 25.718 39.0428 25.5057 38.8876C24.7707 38.3539 23.9621 38.1361 23.0502 38.1225C22.0157 38.1061 21.0683 38.2995 20.1672 38.8086C18.719 39.6282 17.9894 40.8944 17.8478 42.509C17.5974 45.398 19.3505 47.304 21.8714 47.8349C23.1944 48.1154 24.3923 47.8022 25.5166 47.0861C26.0039 46.7757 26.4857 46.3809 27.1309 46.5797C27.3269 46.6396 27.5529 46.7322 27.6727 46.8846C28.0892 47.4129 28.5057 47.9493 28.8487 48.5265C29.2625 49.2236 29.0093 49.9969 28.3696 50.4761C27.2807 51.2902 26.0611 51.8266 24.7434 52.118C24.0928 52.2623 23.4204 52.3113 22.7589 52.4012L22.7616 52.4039Z" fill="#E11267"/>
<path d="M70.5027 23.3615C70.5299 21.8122 70.5626 20.2629 70.5817 18.7163C70.598 17.4774 70.598 16.2358 70.6034 14.9942C70.6252 10.4143 70.6497 5.83449 70.6715 1.25464C70.6715 1.09399 70.6715 0.933344 70.6715 0.666504C71.412 1.16751 72.079 1.60589 72.7323 2.05789C74.2214 3.08985 75.7024 4.13543 77.1942 5.16195C78.245 5.88623 79.3094 6.59145 80.363 7.30756C80.4555 7.37018 80.5263 7.46549 80.608 7.54445C80.5917 7.63975 80.5835 7.74049 80.5535 7.83035C79.8975 9.9215 78.245 15.1358 77.5917 15.2311C77.5753 14.033 77.5454 11.1468 77.431 10.8663C77.3603 11.0134 77.2895 11.1604 77.2187 11.3074C76.9601 11.8466 76.7015 12.383 76.4401 12.9221C76.1053 13.1454 75.6697 13.2979 75.4546 13.6055C75.0599 14.1719 71.7877 21.6407 71.4719 22.4902C71.3031 22.9477 71.0336 23.3044 70.5 23.3588L70.5027 23.3615Z" fill="#F0F0F0"/>
<path d="M63.9514 48.4067C64.1937 48.4067 64.3734 48.4067 64.5503 48.4067C66.554 48.4067 68.5549 48.4067 70.5585 48.4067C70.8389 48.4067 71.122 48.423 71.3997 48.4584C72.1592 48.551 72.4723 48.9131 72.475 49.6755C72.475 50.0894 72.4886 50.5033 72.4859 50.9172C72.4832 51.4726 72.23 51.8348 71.6883 51.9627C71.3044 52.0526 70.9042 52.1043 70.5122 52.1043C67.6647 52.1152 64.8198 52.118 61.9723 52.1043C61.5313 52.1043 61.0767 52.058 60.6492 51.9491C59.9197 51.764 59.5767 51.2984 59.5767 50.5496C59.5685 45.5368 59.5603 40.524 59.563 35.5112C59.563 34.4711 60.1374 33.9102 61.1883 33.8748C61.5531 33.8612 61.9206 33.8367 62.2799 33.8775C63.6601 34.0354 63.8888 34.433 63.9296 35.5739C63.9841 37.1095 63.9514 38.6507 63.9514 40.1891C63.9514 42.7214 63.9514 45.2509 63.9514 47.7832V48.4094V48.4067Z" fill="#E11166"/>
<path d="M114.041 62.7585C109.411 62.7585 104.78 62.7585 100.147 62.7585C99.5423 62.7585 99.0142 62.6442 98.6358 62.0805C98.1485 61.3535 98.4888 60.3297 99.3518 60.1881C100.011 60.0792 100.686 60.052 101.355 60.052C107.658 60.0438 113.957 60.0438 120.259 60.0466C122.739 60.0466 125.219 60.0574 127.697 60.0819C128.08 60.0847 128.489 60.1092 128.845 60.2372C129.629 60.5149 129.828 61.702 129.093 62.3583C128.685 62.7231 128.203 62.7667 127.688 62.7667C123.139 62.7612 118.59 62.764 114.044 62.764V62.7558L114.041 62.7585Z" fill="white"/>
<path d="M0.951172 42.9007C0.951172 40.5373 0.951172 38.1738 0.951172 35.8104C0.951172 35.5463 0.951172 35.2767 1.0029 35.0207C1.16079 34.2583 1.71887 33.9452 2.42667 33.8853C2.91669 33.8417 3.42304 33.8336 3.91034 33.9017C4.93121 34.0432 5.24155 34.4462 5.33956 35.6225C5.34772 35.7042 5.345 35.7886 5.345 35.8703C5.345 40.6135 5.35045 45.3567 5.345 50.0999C5.345 51.5376 4.87132 52.0277 3.4421 52.1312C3.13175 52.153 2.80235 52.1748 2.50562 52.1012C1.23429 51.7854 0.956616 51.4178 0.953894 50.0918C0.948449 47.6957 0.953894 45.2995 0.953894 42.9034L0.951172 42.9007Z" fill="#E11166"/>
<path d="M31.7973 60.0795C35.7664 60.0795 39.7356 60.0768 43.7075 60.085C44.1158 60.085 44.5242 60.1476 44.9298 60.1803C45.4579 60.2211 45.7955 60.5397 45.918 61.0135C46.0459 61.5063 45.967 62.0291 45.5178 62.3395C45.2129 62.5492 44.8236 62.6935 44.4561 62.7452C43.8272 62.8351 43.1848 62.8569 42.5478 62.8569C35.0804 62.8324 27.6104 62.7997 20.143 62.7697C19.7619 62.7697 19.3835 62.7697 19.0024 62.7616C18.3109 62.7452 17.81 62.3259 17.5432 61.6479C17.3145 61.0652 17.8127 60.2783 18.3708 60.1885C18.741 60.1285 19.1167 60.0932 19.4924 60.0932C23.5949 60.0877 27.6975 60.0904 31.7973 60.0904V60.0823V60.0795Z" fill="white"/>
<path d="M81.9266 8.57666C81.9538 8.73459 82.0028 8.89251 82.0028 9.05044C82.0083 11.4629 82.0028 13.8753 82.011 16.2878C82.011 16.6935 82.0546 17.1047 82.1063 17.5076C82.2696 18.8282 81.8286 20.0154 81.3277 21.1998C80.3694 23.4625 79.0872 25.5265 77.5491 27.4379C77.5192 27.476 77.4756 27.5005 77.4375 27.5305C77.4647 27.0268 77.4947 26.523 77.5219 26.0193C77.5491 25.6953 77.5981 25.374 77.6036 25.05C77.6226 24.0534 77.6253 23.0541 77.6362 22.0575C77.7778 22.1501 78.8885 20.9058 79.1635 20.4157C80.6172 17.8072 80.6716 13.0694 81.0391 11.3186C81.2351 10.3846 81.6244 9.49154 81.9293 8.57938L81.9266 8.57666Z" fill="#E11166"/>
<path d="M81.9117 8.5766C81.6095 9.48876 81.2175 10.3819 81.0215 11.3158C80.6567 13.0666 81.174 16.3858 79.4317 20.2795C78.9172 21.4312 77.7629 22.1473 77.6213 22.0548C77.6132 21.0337 77.5995 20.0126 77.5941 18.9915C77.5887 17.739 77.5887 16.4865 77.5859 15.234C78.2393 15.1414 79.8917 9.92442 80.5478 7.83326C80.5778 7.74069 80.5832 7.64266 80.6023 7.54736C81.0378 7.89044 81.4761 8.23352 81.9117 8.5766Z" fill="#ED679D"/>
<path d="M40.3446 18.6727C40.4643 18.5992 42.3128 16.6877 43.1676 15.7456C43.1676 16.1323 43.1894 16.4835 43.1649 16.832C43.0424 18.4195 42.9716 20.015 42.7456 21.5889C42.6367 22.3458 42.3073 23.1055 41.9289 23.7808C41.3191 24.8645 40.6304 25.9128 39.8899 26.9148C39.4435 27.5165 38.8364 28.0012 38.2375 28.6029C38.1014 27.5819 38.9453 25.213 39.046 24.8617C39.2393 24.181 39.4652 23.5058 39.6613 22.825C39.9144 21.9401 40.3201 19.8925 40.2847 19.7591C40.3064 19.397 40.3255 19.0321 40.3473 18.67L40.3446 18.6727Z" fill="#F0F0F0"/>
<path d="M52.0001 11.0382C52.0899 11.207 52.256 11.3785 52.256 11.5473C52.2751 13.6467 52.2642 15.7433 52.2696 17.8426C52.2696 18.7221 52.2506 19.6016 52.305 20.4756C52.384 21.6818 51.9348 22.6893 51.295 23.6668C49.9529 25.7198 48.4203 27.604 46.5065 29.1479C46.0927 29.4801 45.54 29.6407 45.0527 29.8776C45.1861 29.7496 48.5346 26.4523 48.619 26.2181C48.6081 25.8151 48.6925 23.9037 48.7497 23.3509C48.9375 23.0841 49.3241 22.2754 49.3867 22.1719C49.9447 21.2407 50.3177 20.255 50.5899 19.1958C50.9711 17.7092 51.2215 16.2143 51.3059 14.6868C51.374 13.437 51.4747 12.1954 52.0001 11.0327V11.0382Z" fill="#E11166"/>
<path d="M93.0449 21.8667C93.0367 21.2731 93.0285 20.6768 93.0231 20.0832C92.9959 17.3249 92.9686 14.5667 92.9414 11.8084C92.9414 11.6342 92.9414 11.4599 92.9414 11.2148C93.1102 11.2802 93.2028 11.2993 93.2763 11.3455C94.5258 12.1706 95.7726 12.9983 97.0167 13.8288C97.0929 13.8778 97.1392 13.9704 97.2018 14.0439C97.2018 14.2345 97.2018 14.4224 97.2018 14.613C97.0467 14.7301 96.8343 14.8145 96.7472 14.9697C96.3579 15.6531 95.9278 16.3311 95.6501 17.0635C95.0567 18.6237 94.4469 20.1676 93.4886 21.5481C93.3906 21.6897 93.1946 21.7632 93.0449 21.8694V21.8667Z" fill="#F0F0F0"/>
<path d="M90.8558 9.58398C90.9184 9.68473 91.03 9.78275 91.0327 9.88622C91.0735 10.9999 91.098 12.1135 91.128 13.2299C91.0681 13.2952 90.8721 14.1802 90.8666 14.5586C90.8558 16.029 90.8639 17.4993 90.8476 18.9697C90.8476 19.193 90.1425 23.4079 89.8131 24.7149C89.5382 25.8122 89.0536 28.4752 89.0019 28.7094C88.8222 28.6767 88.6806 28.6494 88.5391 28.6249C88.5391 26.139 88.5391 23.6557 88.5391 21.1698C88.5391 20.873 88.5663 20.5789 88.5826 20.2821C89.059 20.3202 89.5273 16.8649 89.6008 16.3612C89.6988 15.6669 90.1316 11.0707 90.8558 9.58671V9.58398Z" fill="#ED679D"/>
<path d="M88.5391 28.6223C88.6806 28.6495 89.5382 25.8123 89.8158 24.715C90.1452 23.408 90.8476 19.193 90.8503 18.9698C90.8639 17.4994 90.8558 16.0291 90.8694 14.5587C90.8721 14.1803 91.0681 13.2953 91.1307 13.23C91.1389 15.2122 91.1471 17.1945 91.1525 19.1767C91.1607 21.9513 91.1688 24.7286 91.1797 27.5032C91.1715 28.6985 91.1607 29.8939 91.1579 31.0892C91.1579 31.1573 90.6325 31.8489 90.2133 31.8788C89.6743 31.917 89.1298 31.887 88.5418 31.887V28.625L88.5391 28.6223Z" fill="#E11166"/>
<path d="M93.0359 21.867C93.1856 21.7608 93.3817 21.6873 93.4797 21.5457C94.4379 20.1652 95.0477 18.6214 95.6412 17.0612C95.9189 16.3287 96.349 15.6534 96.7383 14.9673C96.8254 14.8121 97.035 14.1586 97.1902 14.0415C97.3236 15.0108 97.3699 16.296 97.0731 17.5268C97.0268 18.0441 96.8526 18.5533 96.7029 19.057C96.4878 19.7813 96.2374 20.4947 96.0141 21.2162C95.8263 21.8289 95.6657 22.4497 95.4833 23.0651C95.0477 24.5354 94.3018 25.8015 93.0441 26.7273C93.0414 25.1072 93.0359 23.4871 93.0332 21.8643L93.0359 21.867Z" fill="#ED679D"/>
<path d="M59.353 8.47831C59.4537 8.6444 59.6416 8.81322 59.6416 8.97931C59.6497 11.0569 59.6334 13.1371 59.6225 15.2147C59.598 15.2746 59.5545 15.3317 59.549 15.3916C59.4374 16.4781 59.3557 17.5672 59.2196 18.6509C58.9637 20.6495 58.6806 22.6453 58.3975 24.6412C58.2859 25.4363 57.755 25.9536 57.1643 26.4247C57.1534 25.9019 57.1262 25.3764 57.1343 24.8536C57.1534 23.8325 57.1915 22.8087 57.2214 21.7876C57.3684 21.4228 57.6461 19.9633 57.7087 19.6094C57.9401 18.2997 58.2695 17.0036 58.4383 15.6884C58.6153 14.3025 58.618 12.8948 58.7541 11.5034C58.8548 10.4796 58.8358 9.42042 59.3585 8.47559L59.353 8.47831Z" fill="#ED679D"/>
<path d="M40.3443 18.673C40.3226 19.0351 40.3035 19.4 40.2817 19.7621C39.936 20.5953 39.3752 21.2624 38.7327 21.8833C37.1238 23.4298 35.534 24.99 33.9305 26.5421C33.8162 26.6537 33.6692 26.7354 33.5385 26.8307C33.5276 26.2262 33.5167 25.6217 33.5059 25.0173C33.5195 24.892 33.5358 24.7668 33.5494 24.6415C34.0558 24.5571 34.6846 22.8717 34.8207 22.4305C34.9895 21.8805 35.5884 18.0685 35.7382 16.7153C35.7708 16.4239 35.7599 16.0536 36.201 16.0073C36.1737 17.3524 36.1438 18.6975 36.1247 20.0399C36.122 20.2495 36.1765 20.4592 36.2064 20.6689C36.1792 20.8077 36.122 22.7056 36.1247 23.5115C36.1247 23.6477 36.152 23.7865 36.1683 23.9363C37.0721 23.615 37.818 22.4033 37.8017 21.3523C37.8452 20.0671 37.8888 18.7819 37.9324 17.4967C38.4414 17.6002 38.2236 18.0495 38.5068 18.4089C38.9015 18.9072 39.3561 18.3599 39.4759 18.2292C39.6011 18.0958 39.7618 17.9923 39.906 17.8779C40.3362 17.9868 40.3171 18.3435 40.3416 18.673H40.3443Z" fill="#E11166"/>
<path d="M124.925 27.1301C124.917 26.1253 124.904 25.1206 124.901 24.1159C124.895 22.3269 124.901 20.538 124.901 18.583C126.107 19.4108 127.207 20.1677 128.306 20.9219C128.244 21.0172 128.157 21.1044 128.124 21.2078C127.561 22.9995 126.823 24.7149 125.895 26.3486C125.677 26.7325 125.47 27.141 124.928 27.1301H124.925Z" fill="#F0F0F0"/>
<path d="M59.3526 8.47834C58.8299 9.42317 58.849 10.4824 58.7483 11.5062C58.6122 12.8975 58.6094 14.3053 58.4325 15.6912C58.2637 17.0091 57.9343 18.3051 57.7029 19.6121C57.6403 19.9634 57.3626 21.4255 57.2156 21.7904C57.2238 20.723 57.2319 19.6584 57.2428 18.591C57.2455 18.1608 57.2592 17.7333 57.2592 17.3031C57.2592 14.6102 57.2673 11.9146 57.2537 9.22168C57.251 8.55185 57.1693 7.88475 57.123 7.21765C57.1666 7.18498 57.2102 7.1523 57.251 7.11963C57.9506 7.57162 58.653 8.02634 59.3526 8.47834Z" fill="#F0F0F0"/>
<path d="M124.922 27.13C125.464 27.1382 125.671 26.7297 125.888 26.3485C126.817 24.7148 127.557 22.9994 128.118 21.2078C128.151 21.1043 128.238 21.0172 128.3 20.9219C128.916 21.3303 128.945 21.4719 128.82 22.1826C128.747 22.5992 128.785 23.0348 128.779 23.4623C128.769 24.3854 128.766 25.3084 128.758 26.2314C128.23 26.3213 127.884 26.6317 127.647 27.1028C127.179 28.034 126.694 28.9598 126.22 29.891C126.193 29.9454 126.207 30.0189 126.201 30.0843H124.922V27.1327V27.13Z" fill="#ED679D"/>
<path d="M52.0207 11.038C51.4953 12.2006 51.3946 13.4423 51.3265 14.6921C51.2421 16.2196 50.9917 17.7117 50.6105 19.2011C50.3383 20.2603 49.9653 21.2487 49.4073 22.1772C49.3447 22.2807 48.9608 23.0921 48.7702 23.3562C48.7294 22.6755 48.675 20.1432 48.6995 19.5578C48.7131 19.2311 50.2485 13.4069 50.5425 12.3123C50.7085 11.6915 51.0624 11.1224 51.332 10.5288C51.5606 10.6976 51.7893 10.8664 52.0207 11.0353V11.038Z" fill="#ED679D"/>
<path d="M90.8273 9.58416C90.1032 11.0708 89.6704 15.6643 89.5723 16.3586C89.5016 16.8624 89.0333 20.3177 88.5542 20.2795C88.546 19.8847 88.5297 19.4872 88.527 19.0924C88.4998 15.6098 88.4725 12.1246 88.4453 8.64205C88.4453 8.46234 88.4453 8.28535 88.4453 7.98584C88.7747 8.17916 89.0252 8.30986 89.2566 8.47051C89.7847 8.83537 90.3019 9.21113 90.8246 9.58416H90.8273Z" fill="#F0F0F0"/>
<path d="M95.4902 23.0678C95.6726 22.4524 95.8332 21.8316 96.0211 21.2189C96.2416 20.4974 96.4947 19.784 96.7098 19.0597C96.8595 18.556 97.0338 18.0468 97.08 17.5295C97.1644 16.5601 97.1644 15.5853 97.1998 14.6133C97.2597 14.646 97.3169 14.6786 97.3768 14.7113C97.3822 15.9175 97.453 17.1292 97.3822 18.3327C97.2706 20.1815 97.1998 22.0412 96.6036 23.8247C95.9203 25.8641 94.7443 27.5959 93.3015 29.167C93.2252 29.2486 93.1218 29.3058 93.0319 29.3739C93.002 28.7177 93.0864 27.3862 93.0537 26.73C93.0918 26.504 95.0573 24.5381 95.4929 23.0678H95.4902Z" fill="#E11166"/>
<path d="M100.386 17.9839C101.363 18.3596 101.69 19.0267 101.6 20.0941C101.415 22.286 100.903 24.3363 99.5963 26.1416C99.5418 26.2151 99.4629 26.2695 99.354 26.373C99.2941 25.9265 99.207 25.5371 99.1961 25.1477C99.1525 23.1927 99.1335 21.2377 99.1035 19.2827C99.3376 19.1493 99.6208 19.0621 99.7977 18.8743C100.037 18.6183 100.192 18.2834 100.386 17.9839Z" fill="#E11166"/>
<path d="M108.092 20.1814C108.459 20.4074 108.838 20.6334 109.205 20.8567C109.012 21.3632 108.628 23.3536 108.506 23.7021C108.386 24.0424 106.992 26.8715 106.303 27.8545C106.018 28.2629 105.647 28.4644 105.155 28.4208C105.141 28.3146 105.127 25.6925 105.165 25.4529C105.832 24.6306 106.448 23.7947 106.848 22.7927C107.205 21.8996 107.67 21.05 108.089 20.1787L108.092 20.1814Z" fill="#ED679D"/>
<path d="M14.4871 28.818V21.6079C15.3855 22.1035 16.2403 22.5691 17.0869 23.0483C17.321 23.1817 17.5307 23.3587 17.7512 23.5139C17.2584 24.6711 16.7847 25.842 16.2621 26.9856C15.8918 27.7942 15.3582 28.4777 14.4844 28.8153L14.4871 28.818Z" fill="#F0F0F0"/>
<path d="M61.9617 31.8654C61.9045 31.5413 65.0652 26.3543 65.6396 25.1127C66.0615 24.2005 66.6005 23.3891 67.126 22.5559C67.3791 22.1529 67.7194 21.8044 68.0162 21.4341C68.5443 23.4708 63.949 31.4433 61.9644 31.8654H61.9617Z" fill="#F0F0F0"/>
<path d="M70.6759 27.1192C70.7467 27.0102 72.1813 25.5753 72.587 24.7938C73.6024 22.8307 74.3646 20.7776 74.7948 18.5939C74.92 17.9595 75.4155 17.3958 75.7421 16.8022C75.6469 17.6599 75.6087 18.5313 75.44 19.3753C75.2167 20.5053 74.9363 21.6272 74.6069 22.7272C73.7875 25.4555 72.2793 27.7917 70.3873 29.8938C70.3411 29.7848 70.5017 29.0088 70.4772 28.6875C70.5126 28.2383 70.548 27.7917 70.5806 27.3424C70.6133 27.2662 70.646 27.1927 70.6759 27.1164V27.1192Z" fill="#E11166"/>
<path d="M19.707 30C19.8186 29.7822 19.8731 29.4636 20.0392 29.3928C20.8667 29.0252 22.9738 26.0056 23.5237 25.1587C23.9266 24.5379 24.2234 23.8436 24.5119 23.1574C24.7134 22.6837 25.2878 21.8287 25.6662 21.6626C25.6662 22.1636 25.7343 22.6537 25.6499 23.1166C25.541 23.7156 25.3041 24.2902 25.1353 24.8783C24.8196 25.9811 24.2914 26.9831 23.5265 27.819C22.8894 28.5133 22.1598 29.1423 21.3976 29.7005C20.9756 30.0082 20.4312 30.2614 19.7098 30H19.707Z" fill="#F0F0F0"/>
<path d="M57.1649 26.4278C57.7556 25.9567 58.2865 25.4394 58.3981 24.6443C58.6812 22.6485 58.9643 20.6526 59.2202 18.654C59.3591 17.5703 59.4407 16.4812 59.5496 15.3948C59.5551 15.3349 59.5986 15.2777 59.6231 15.2178C59.6368 17.1973 59.6504 19.1741 59.6613 21.1536C59.6313 22.5858 59.6259 25.6627 59.6531 25.7689C59.2066 27.0268 58.3954 28.0506 57.546 29.0526C57.429 29.1888 57.2983 29.314 57.173 29.4447C57.1431 29.4257 57.1159 29.4066 57.0859 29.3875C57.1104 28.4019 57.1349 27.4162 57.1594 26.4305L57.1649 26.4278Z" fill="#E11166"/>
<path d="M55.0751 14.8989C55.9191 17.1426 54.4463 24.4126 52.753 26.4084C52.7285 26.3104 52.6904 26.2369 52.6958 26.1688C52.7557 25.2376 52.8211 24.3091 52.8891 23.3779C52.9408 22.6618 52.8973 21.9185 53.0851 21.2377C53.3982 20.0941 53.8283 18.9778 54.2721 17.8777C54.6314 16.9819 55.0561 16.1133 55.0071 15.114C55.0071 15.0596 55.0425 15.0051 55.0779 14.9044L55.0751 14.8989Z" fill="#F0F0F0"/>
<path d="M5.34487 26.008C5.73961 26.2395 5.89205 26.6506 5.73144 27.1108C5.54632 27.6363 4.48461 29.2755 4.19877 29.594C3.80948 30.0297 3.21601 30.2121 2.80494 29.9943C2.69877 29.9371 2.58443 29.7928 2.55993 29.6975C2.24142 28.5131 2.55449 25.8474 2.58171 24.7936C2.60077 24.0503 4.9093 25.7494 5.34759 26.0053L5.34487 26.008Z" fill="#E11166"/>
<path d="M108.105 20.1812C107.688 21.0498 107.245 22.4657 106.888 23.3588C106.488 24.3608 105.93 25.0497 105.17 25.4554C105.159 23.9197 105.148 22.3813 105.143 20.8456C105.138 19.9443 105.143 19.0403 105.143 18.0029C106.235 18.8062 107.171 19.4951 108.108 20.1812H108.105Z" fill="#F0F0F0"/>
<path d="M105.152 28.4235C105.645 28.4643 105.974 28.2547 106.26 27.8462C106.946 26.8633 107.926 24.7857 108.321 23.6966C108.574 22.9995 109.01 21.3658 109.203 20.8594C109.298 20.971 109.481 21.0854 109.481 21.197C109.47 22.3134 109.473 23.4325 109.386 24.5461C109.307 25.5209 108.729 26.3133 108.158 27.0566C107.42 28.0205 106.609 28.9272 105.808 29.8421C105.585 30.098 105.166 30.4438 105.169 30.4166C105.237 29.7522 105.204 29.1505 105.155 28.4235H105.152Z" fill="#E11166"/>
<path d="M83.4175 23.0021C83.9347 21.4664 84.4874 19.9443 84.9828 18.4032C85.1162 17.9893 85.2986 16.7913 85.4266 16.666C85.481 18.9968 85.3013 21.3085 84.5336 23.4868C83.8857 25.3247 82.9275 27.0564 81.2587 28.4043C81.1743 27.7508 82.2306 25.7958 82.5055 25.2321C82.5055 25.2321 83.1589 23.7672 83.4175 23.0021Z" fill="#ED679D"/>
<path d="M33.5069 21.2621C33.4743 21.1314 33.3926 16.2221 33.3926 13.894C33.6104 14.0084 35.3254 15.0022 35.9625 15.4107C36.0795 15.4869 36.1258 15.6693 36.2047 15.8028C35.7093 15.9062 35.1458 16.7149 34.9988 17.3739C34.7401 18.5229 34.4434 19.6638 34.1058 20.7938C34.0459 20.9925 33.7138 21.1096 33.5096 21.2648L33.5069 21.2621Z" fill="#F0F0F0"/>
<path d="M14.4876 28.818C15.3588 28.4804 15.8951 27.7969 16.2653 26.9882C16.788 25.8419 17.259 24.6738 17.7544 23.5166C17.9151 23.5629 18.0757 23.6119 18.2363 23.6582C18.2091 24.4233 18.1492 25.1884 18.1628 25.9508C18.1737 26.5063 18.2826 27.059 18.3479 27.6145C17.3679 28.6492 16.3116 29.575 14.9532 30.1086C14.5775 30.2557 14.4713 30.1658 14.4768 29.8064C14.4795 29.4769 14.4849 29.1475 14.4904 28.818H14.4876Z" fill="#E11166"/>
<path d="M18.3277 27.6146C18.2624 27.0592 18.1535 26.5064 18.1426 25.951C18.129 25.1858 18.1889 24.4207 18.2161 23.6583C19.1771 23.337 19.9802 22.7788 20.6444 22.0192C20.8949 21.7333 21.1317 21.4337 21.4502 21.1914C21.2869 23.77 20.3613 25.9619 18.325 27.6174L18.3277 27.6146Z" fill="#F0F0F0"/>
<path d="M118.477 18.8963V14.0659C119.5 14.7521 120.45 15.3865 121.398 16.0264C121.713 16.2388 122.018 16.4675 122.329 16.688C121.327 17.3388 118.76 18.8091 118.479 18.8935L118.477 18.8963Z" fill="#F0F0F0"/>
<path d="M59.668 25.766C59.6408 25.6598 59.6463 22.5802 59.6762 21.1507C60.12 21.2678 61.5492 19.0024 61.9738 18.1365C62.4993 17.0637 62.9838 14.5042 63.0492 14.3926C63.0982 14.4116 62.1535 19.7348 61.6036 21.4393C61.1871 22.7327 59.7933 25.5835 59.668 25.766Z" fill="#ED679D"/>
<path d="M48.6287 26.2207C48.5443 26.4549 45.1985 29.7522 45.0624 29.8802C44.959 29.9183 44.8555 29.9864 44.7494 29.9919C43.851 30.0327 42.9499 30.0545 42.0515 30.0953C41.6459 30.1144 41.243 30.1688 40.8374 30.1934C40.7013 30.2015 40.5624 30.1634 40.2793 30.128C40.5161 29.9456 40.6359 29.8503 40.7557 29.7577C41.0143 29.7386 44.7221 28.2302 45.3673 27.9143C45.7022 27.751 47.8909 26.6509 48.6287 26.2234V26.2207Z" fill="#ED679D"/>
<path d="M118.477 18.8959C118.757 18.8115 121.324 17.3412 122.326 16.6904C122.612 16.8756 123.036 16.9219 123.017 17.4038C122.993 18.0056 123.186 18.6645 122.389 18.994C121.716 19.2717 121.136 21.902 120.687 22.8577C119.949 24.4342 118.477 25.3764 118.477 24.9706V18.8987V18.8959Z" fill="#ED699E"/>
<path d="M130.287 28.7177V22.6865C131.077 23.1821 131.76 23.6096 132.44 24.0371C132.405 24.146 132.362 24.2522 132.334 24.3638C132.1 25.3359 131.929 26.327 131.621 27.2745C131.278 28.3201 130.973 28.8647 130.287 28.7177Z" fill="#ED679D"/>
<path d="M77.5183 26.0166C77.491 26.5203 77.4611 27.0241 77.4339 27.5278C77.0364 28.0288 73.3477 32.1294 73.2605 32.2002C72.9584 31.7128 73.0128 31.239 73.2687 30.8034C74.0718 29.4365 74.8803 28.0696 75.7351 26.7327C76.0482 26.2426 75.0301 27.8736 74.736 29.4202C74.7823 29.4556 77.3712 26.1419 77.5183 26.0193V26.0166Z" fill="#F0F0F0"/>
<path d="M30.0618 24.4997C29.5473 26.1825 28.8449 27.6746 27.824 29.0279C27.1925 29.8638 26.4438 30.2423 25.4175 30.0898C25.2406 30.0653 25.0609 30.0707 24.7832 30.0571C25.491 29.3573 26.1689 28.7392 26.7814 28.064C27.4375 27.3424 28.0255 26.561 28.6516 25.8122C29.03 25.3602 29.4193 24.9163 29.8168 24.4807C29.8467 24.448 29.9611 24.4916 30.0618 24.5025V24.4997Z" fill="#ED679D"/>
<path d="M33.5273 21.2623C33.7342 21.1071 34.0636 20.9901 34.1235 20.7913C34.4611 19.664 34.7578 18.5204 35.0165 17.3714C35.1662 16.7097 35.727 15.9038 36.2224 15.8003C36.217 15.8684 36.2088 15.9364 36.2034 16.0045C35.7624 16.0508 35.7733 16.4211 35.7406 16.7125C35.5909 18.0657 34.992 21.8777 34.8232 22.4277C34.6871 22.8688 34.0555 24.5543 33.5518 24.6387C33.5437 23.5114 33.5355 22.3869 33.5273 21.2596V21.2623Z" fill="#ED679D"/>
<path d="M110.287 29.9891C110.954 29.4473 113.744 27.6584 114.515 27.2581C114.994 27.0103 116.162 26.5093 116.279 26.5202C115.31 28.919 113.6 30.5854 110.287 29.9891Z" fill="#ED679D"/>
<path d="M130.292 28.7177C130.978 28.862 131.283 28.3202 131.626 27.2746C131.936 26.327 132.105 25.3359 132.339 24.3639C132.366 24.2522 132.41 24.146 132.445 24.0371C132.744 24.0834 132.777 24.2876 132.774 24.5436C132.769 25.5292 132.774 26.5149 132.78 27.4979C132.802 28.3338 132.821 29.1724 132.842 30.0083C132.129 30.0383 131.413 30.0574 130.703 30.1036C130.352 30.1254 130.226 29.9893 130.256 29.6489C130.283 29.3412 130.281 29.0281 130.294 28.7204L130.292 28.7177Z" fill="#E11166"/>
<path d="M139.386 25.3384C139.487 26.7733 139.051 28.0857 138.466 29.3655C138.254 29.8311 136.98 29.9972 136.667 29.9972C136.74 29.115 136.596 28.2736 136.667 27.4323C137.295 27.1545 138.09 26.8305 138.406 26.1634C138.602 25.7495 138.817 25.3248 139.389 25.3357L139.386 25.3384Z" fill="#E11166"/>
<path d="M139.382 25.3384C138.814 25.3247 138.596 25.7495 138.4 26.1661C138.084 26.8332 137.289 27.1599 136.66 27.435C136.66 26.0871 136.66 24.742 136.66 23.3806C136.66 23.3806 136.916 23.3507 136.93 23.3588C137.73 23.8435 138.533 24.32 139.314 24.8346C139.407 24.8945 139.363 25.1668 139.38 25.3384H139.382Z" fill="#ED679D"/>
<path d="M144.924 29.9074C144.421 29.9863 143.887 29.9428 143.373 29.8774C143.253 29.8611 143.09 29.5997 143.079 29.4418C143.016 28.6113 142.981 27.7754 142.962 26.9422C142.951 26.5038 143.081 26.4439 143.457 26.6835C143.691 26.8305 145.014 29.8938 144.924 29.9074Z" fill="#ED699E"/>
<path d="M126.188 30.0818C126.193 30.0165 126.179 29.943 126.207 29.8885C126.68 28.9573 127.165 28.0343 127.633 27.1003C127.87 26.6293 128.216 26.3189 128.744 26.229C128.717 26.9941 128.689 27.762 128.668 28.5271C128.659 28.7912 128.668 29.0553 128.668 29.3167C128.662 29.9947 128.662 29.9838 127.995 29.9974C127.393 30.0111 126.792 30.0519 126.19 30.0791L126.188 30.0818Z" fill="#E11166"/>
<path d="M93.0294 26.73C93.0594 27.3862 92.975 28.7177 93.0077 29.3739C92.4088 30.011 91.1211 31.1546 91.1211 31.0866C91.1211 29.8912 91.1347 28.6959 91.1429 27.5006C91.7418 27.5986 92.4578 27.0812 93.0294 26.73Z" fill="#F0F0F0"/>
<path d="M132.858 30.0084C132.836 29.1725 132.817 28.3338 132.795 27.4979C133.154 27.8165 133.478 28.2222 133.887 28.0343C134.175 27.9009 134.935 27.3618 134.978 27.4053C134.537 28.3311 134.186 29.069 133.745 30.0002C133.372 30.0084 133.165 30.0057 132.86 30.0084H132.858Z" fill="#F0F0F0"/>
<path d="M37.8101 21.3548C37.8265 22.4058 37.0805 23.6175 36.1767 23.9388C36.1604 23.7891 36.1332 23.6502 36.1332 23.5141C36.1277 22.7054 36.1849 20.8103 36.2148 20.6714C36.5361 20.9056 37.6005 21.363 37.8128 21.3575L37.8101 21.3548Z" fill="#ED679D"/>
<path d="M33.5201 25.0171C33.5309 25.6216 33.5418 26.226 33.5527 26.8305C33.1988 27.2226 32.8613 27.6338 32.4829 28.0041C32.2814 28.2001 31.9438 27.9986 31.9956 27.6746C32.1289 26.8278 32.3005 25.9755 33.0028 25.3711C33.1607 25.2349 33.3458 25.1369 33.5201 25.0198V25.0171Z" fill="#ED679D"/>
<path d="M66.7012 33.4633C66.7992 33.3081 70.0605 27.9658 70.5614 27.3423C70.5887 27.6636 71.0297 28.524 70.3681 29.8936C69.84 30.4463 69.3173 31.0018 68.7838 31.5491C68.2202 32.1236 66.8264 33.3952 66.7039 33.4633H66.7012Z" fill="#E11166"/>
<path d="M39.9134 17.8779C39.7691 17.995 39.6085 18.0958 39.4832 18.2292C39.3635 18.3572 38.9306 19.0161 38.5114 18.5178C38.1956 18.1393 38.4488 17.6029 37.9397 17.4995C37.9288 17.2871 37.9179 17.0774 37.9043 16.7725C38.7428 16.9113 39.29 17.4668 39.9134 17.8779Z" fill="#ED679D"/>
<path d="M100.386 17.9842C100.195 18.2837 100.037 18.6186 99.7977 18.8745C99.6235 19.0624 99.3404 19.1496 99.1035 19.283V17.1973C99.5745 17.4859 99.9801 17.7364 100.383 17.9842H100.386Z" fill="#ED679D"/>
<path d="M97.3684 14.714C97.3085 14.6813 97.2513 14.6486 97.1914 14.616C97.1914 14.4254 97.1914 14.2375 97.1914 14.0469C97.2513 14.2701 97.3112 14.4934 97.3711 14.714H97.3684Z" fill="#ED679D"/>
<path d="M57.0898 29.3848C57.1165 29.4017 57.1408 29.4187 57.1675 29.4357C57.1481 29.4478 57.1287 29.46 57.1092 29.4721C57.102 29.443 57.0971 29.4139 57.0898 29.3848Z" fill="#7B8586"/>
<path d="M75.4546 13.6056C75.0599 14.172 71.0336 23.3072 70.5 23.3616C70.5 24.4834 70.5354 26.9857 70.5572 27.1164C70.5572 27.1927 70.5599 27.2689 70.5626 27.3452C70.5953 27.2689 72.1906 25.8775 72.5962 25.0934C73.6116 23.1302 74.3494 20.7776 74.7795 18.5939C74.9047 17.9595 75.4002 17.3958 75.7269 16.8023C75.7895 16.5599 75.8739 16.3203 75.9147 16.0752C76.0971 15.0269 77.2568 11.9202 77.431 10.8691C77.0962 11.0924 75.6697 13.3007 75.4573 13.6083L75.4546 13.6056Z" fill="#ED699E"/>
<path d="M58.8577 63.7825L59.0537 63.6409C59.3014 63.4966 59.4756 63.4231 59.5764 63.4231C59.8023 63.4231 60.0446 63.6273 60.3059 64.033C60.4666 64.2862 60.5455 64.4904 60.5455 64.6429C60.5455 64.7954 60.4965 64.9234 60.3985 65.0241C60.3005 65.1248 60.1862 65.2174 60.0555 65.2964C59.9248 65.3753 59.7996 65.4516 59.6798 65.5251C59.56 65.5986 59.315 65.6912 58.9448 65.8083C58.5745 65.9254 58.2179 65.9825 57.8722 65.9825C57.5265 65.9825 57.178 65.9363 56.8268 65.8464C56.4756 65.7565 56.1108 65.6041 55.7379 65.389C55.3649 65.1739 55.0274 64.9125 54.7306 64.6048C54.4339 64.2971 54.1889 63.8996 53.9956 63.4176C53.8023 62.9357 53.707 62.4102 53.707 61.8438C53.707 61.2774 53.8023 60.7628 53.9902 60.3027C54.178 59.8425 54.4203 59.4613 54.7143 59.1591C55.0083 58.8568 55.3431 58.6063 55.7216 58.4021C56.4321 58.01 57.148 57.814 57.8667 57.814C58.207 57.814 58.5555 57.8657 58.9067 57.9719C59.2578 58.0781 59.5246 58.1843 59.707 58.2932L59.9684 58.4457C60.099 58.5246 60.1998 58.59 60.2733 58.6417C60.4611 58.7942 60.5564 58.9657 60.5564 59.1591C60.5564 59.3524 60.4802 59.5539 60.3277 59.7635C60.0446 60.1556 59.7914 60.3517 59.5655 60.3517C59.4348 60.3517 59.2497 60.2727 59.0101 60.1121C58.7052 59.8643 58.2996 59.7418 57.7905 59.7418C57.3196 59.7418 56.854 59.9051 56.3967 60.2319C56.1789 60.3925 55.9965 60.6158 55.8522 60.9071C55.7079 61.1985 55.6344 61.5252 55.6344 61.8928C55.6344 62.2604 55.7079 62.5871 55.8522 62.8785C55.9965 63.1698 56.1816 63.3986 56.4076 63.5647C56.8513 63.8832 57.3114 64.0439 57.7905 64.0439C58.0165 64.0439 58.2288 64.0139 58.4275 63.9567C58.6263 63.8996 58.7706 63.8397 58.8577 63.7825Z" fill="#E11367"/>
<path d="M68.6225 58.4565L71.5627 64.5339C71.6852 64.7817 71.7478 64.9668 71.7478 65.0894C71.7478 65.3508 71.5382 65.5877 71.1162 65.7973C70.8685 65.9198 70.6752 65.9825 70.5336 65.9825C70.3921 65.9825 70.275 65.9498 70.1852 65.8845C70.0953 65.8191 70.03 65.751 69.9892 65.6775C69.9483 65.604 69.8939 65.4951 69.8204 65.3508L69.2541 64.1745H66.2378L65.6716 65.3508C65.598 65.4951 65.5436 65.6013 65.5028 65.6666C65.4619 65.732 65.3966 65.8 65.3068 65.8681C65.2169 65.9362 65.0999 65.9716 64.9583 65.9716C64.8167 65.9716 64.6235 65.909 64.3757 65.7864C63.9538 65.5822 63.7441 65.3508 63.7441 65.0894C63.7441 64.9668 63.8068 64.7817 63.9293 64.5339L66.8694 58.4456C66.9483 58.2795 67.0708 58.1434 67.2342 58.0426C67.3975 57.9419 67.569 57.8901 67.7514 57.8901C68.1434 57.8901 68.4347 58.078 68.6225 58.4565ZM67.7405 61.0704L67.0218 62.5626H68.4701L67.7405 61.0704Z" fill="#E11367"/>
<path d="M81.4585 64.523C81.5674 64.7844 81.6218 64.9723 81.6218 65.0894C81.6218 65.3644 81.3959 65.5986 80.9467 65.7864C80.7153 65.8872 80.5275 65.9389 80.3859 65.9389C80.2443 65.9389 80.1273 65.9035 80.0374 65.8354C79.9476 65.7674 79.8796 65.6966 79.836 65.6231C79.7625 65.4842 79.4794 64.828 78.9866 63.6517L78.6491 63.6735H77.277V64.9042C77.277 65.0703 77.2716 65.1956 77.2607 65.28C77.2498 65.3644 77.2144 65.4597 77.1572 65.5686C77.0565 65.7646 76.7734 65.8627 76.3079 65.8627C75.7988 65.8627 75.5021 65.7293 75.415 65.4597C75.3714 65.3372 75.3496 65.1466 75.3496 64.8933V58.8486C75.3496 58.6825 75.3551 58.5572 75.3659 58.4728C75.3768 58.3884 75.4122 58.2931 75.4694 58.1842C75.5701 57.9882 75.8532 57.8901 76.3188 57.8901H78.6708C79.3106 57.8901 79.9313 58.1216 80.5329 58.5872C80.8242 58.8132 81.0638 59.1181 81.2516 59.5021C81.4394 59.886 81.5347 60.3162 81.5347 60.7873C81.5347 61.6068 81.2625 62.2821 80.718 62.8131C80.8786 63.197 81.1237 63.7688 81.4585 64.523ZM77.277 61.7457H78.6708C78.8805 61.7457 79.0928 61.6667 79.3024 61.5061C79.512 61.3454 79.6182 61.1058 79.6182 60.7873C79.6182 60.4687 79.512 60.2264 79.3024 60.063C79.0928 59.8996 78.875 59.8179 78.6491 59.8179H77.277V61.7457Z" fill="#E11367"/>
<path d="M85.1913 64.7521C85.0035 64.5206 84.9082 64.311 84.9082 64.1258C84.9082 63.9407 85.0634 63.6956 85.3764 63.3906C85.5588 63.2164 85.7494 63.1292 85.9536 63.1292C86.1577 63.1292 86.4409 63.3117 86.8029 63.6738C86.9037 63.7963 87.0507 63.9161 87.2385 64.0278C87.4264 64.1394 87.6006 64.1966 87.7612 64.1966C88.4363 64.1966 88.7739 63.9216 88.7739 63.3689C88.7739 63.2028 88.6813 63.0612 88.4962 62.9495C88.3111 62.8379 88.0797 62.7562 87.8048 62.7045C87.5298 62.6527 87.2303 62.5711 86.9118 62.4594C86.5933 62.3478 86.2939 62.2144 86.0189 62.0619C85.744 61.9094 85.5126 61.6671 85.3274 61.3376C85.1423 61.0081 85.0498 60.6106 85.0498 60.145C85.0498 59.5051 85.2866 58.9497 85.763 58.4732C86.2394 57.9967 86.8873 57.7598 87.7068 57.7598C88.1423 57.7598 88.5398 57.8169 88.8991 57.9286C89.2585 58.0402 89.5062 58.1546 89.645 58.2717L89.9173 58.4786C90.1432 58.6883 90.2548 58.868 90.2548 59.0123C90.2548 59.1566 90.1677 59.3581 89.9935 59.6113C89.7458 59.9734 89.4926 60.1559 89.2313 60.1559C89.0788 60.1559 88.891 60.0824 88.665 59.9381C88.6432 59.9244 88.6024 59.8863 88.5398 59.8291C88.4772 59.772 88.4227 59.7229 88.371 59.6875C88.2185 59.5922 88.0253 59.546 87.7884 59.546C87.5516 59.546 87.3556 59.6031 87.2004 59.7148C87.0452 59.8264 86.9663 59.9843 86.9663 60.1831C86.9663 60.3819 87.0588 60.5452 87.244 60.6678C87.4291 60.7903 87.6605 60.8747 87.9354 60.9183C88.2104 60.9619 88.5126 61.0299 88.8392 61.1198C89.1659 61.2096 89.4681 61.3213 89.7431 61.452C90.018 61.5827 90.2494 61.8087 90.4345 62.1327C90.6196 62.4567 90.7122 62.8542 90.7122 63.3253C90.7122 63.7963 90.6169 64.2129 90.4291 64.5724C90.2412 64.9318 89.9935 65.2095 89.6886 65.4056C89.1006 65.7895 88.4717 65.9828 87.8048 65.9828C87.4645 65.9828 87.1405 65.942 86.8356 65.8575C86.5307 65.7731 86.283 65.6697 86.0951 65.5471C85.7113 65.3157 85.4418 65.0897 85.2893 64.8719L85.1913 64.7521Z" fill="#E11367"/>
<path d="M11.4897 25.311C11.5905 26.746 11.1549 28.0584 10.5696 29.3381C10.3573 29.8037 9.08322 29.9698 8.77015 29.9698C8.84365 29.0876 8.69937 28.2463 8.77015 27.4049C9.39901 27.1272 10.1939 26.8032 10.5097 26.1361C10.7057 25.7222 10.9208 25.2974 11.4925 25.3083L11.4897 25.311Z" fill="#E11166"/>
<path d="M11.4879 25.311C10.919 25.2974 10.7012 25.7222 10.5052 26.1388C10.1894 26.8059 9.39448 27.1326 8.76562 27.4076C8.76562 26.0598 8.76562 24.7147 8.76562 23.3533C8.76562 23.3533 9.02152 23.3233 9.03513 23.3315C9.8355 23.8162 10.6386 24.2927 11.4199 24.8073C11.5125 24.8672 11.4689 25.1395 11.4852 25.311H11.4879Z" fill="#ED679D"/>
</g>
<defs>
<clipPath id="clip0_4316_833">
<rect width="147" height="68" fill="white"/>
</clipPath>
</defs>
</svg>
